<svg version="1.2" xmlns="http://www.w3.org/2000/svg" viewBox="0 0 2307 1641" width="2307" height="1641">
	<title>cat-icon-svg</title>
	<style>
		.s0 { fill: #ffffff;stroke: #ffffff;stroke-width: 3.9 } 
	</style>
	<g id="Layer">
		<path id="Layer" class="s0" d="m1998.7 1335q3.5 3.7 7 7.5c-20.3-2.7-40.9-2-60.9 2 9.6 0.1 18.9 5.7 23.8 14-8.6-1.4-17.3-1.6-25.9-0.9-31.4 2.7-60.9 18-85.4 37.2q7.2 1.1 14.4 2.3c-17.7 17.4-41.7 28.1-66.5 29.7 5.6 5.9 7.5 15 4.7 22.7-11.1-10.1-24 0.3-30.5 10.6-6.4 11.6-7.7 25.8-19.3 34.8-6.5 5.1-14.2 5.1-21.9 5.1-9.1 11.7-20.7 23.3-34.9 29.7-1.2 1.3-3.8 0-5.1 1.3-2.6 1.3-5.2 3.9-9 5.2-31 7.7-60.7 11.6-91.6 14.1-20.6 1.3-40-2.5-59.3-10.3-18.1-7.7-34.8-16.7-51.6-27.1-70.9-45.1-126.4-101.8-203.8-130.2-28.4-10.3-58-18.1-89-15.5-43.8 3.9-81.2 25.8-118.6 50.3-14.2 9-29.7 14.2-45.4 20.3-3.1 1.2-7.8 1.2-9.8-1.4-11.9-15 6.2-29.2 13.9-42.1 5.2-10.3 1.3-20.6-2.6-29.7-5.1-9-10.3-16.7-15.4-25.8-5.2-7.7-14.2-12.9-19.4-20.6 2.6-3.9 7.8-2.6 10.3-5.2 2.6-3.8 0-9-2.5-11.6-3.9-5.1-5.2-11.6-3.9-18 2.6-11.6 12.9-20.6 10.3-33.5 0-2.6 1.3-6.5 3.9-7.8 5.1-2.6 7.7-6.4 10.3-9 10.3-12.9 12.9-40 33.4-34.9 7.9-25.7 18.2-50.2 33.7-72.1 0-11.7-12.9-11.7-19.4-18.1-5.2-5.2-3.9-11.6-1.3-16.8 7.8-10.3 12.9-20.6 16.8-33.5 3.9-11.6 18-14.2 29-10.8-3.2-8.5 3.2-12.4 8.4-16.3 7.7-5.1 16.7-5.1 24.5-10.3 5.1-3.9 6.4-11.6 11.6-15.5 2.6-1.3 5.2-2.6 7.7-2.6 11.6 1.3 23.2 2.6 34.9-1.2 16.7-6.5 33.5-14.2 46.4-27.1 9-10.3 12.9-24.5 21.9-34.8 1.3-1.3 3.9-2.6 5.2-3.9 7.7-3.9 14.1-6.5 21.9-7.8 14.2-15.4 25.8-33.5 33.3-52.8 8.6-24 9.3-51.9-3.6-74.6 2.2 13.4-19.7 13.1-17.3-1.3 0.8-5.1 4.2-9.5 4.8-14.7 0.7-6.3-3.7-9.8-9-12.1-22.1-9.6-49.1-12.4-71.6-2.8-9.8 4.2-18.7 10.6-25.4 19-7.5 9.4-10.9 21-13.5 32.7-4.7 21.5-8.5 45.8-30.7 56.3-18.1 8.6-40.8 6.8-56.6 20.5 6.3-8.6 11.3-18.1 14.8-28.1-7.1 3.8-13.5 7.6-21.2 11.5-7.8 5.2-11.6 14.2-19.4 18.1-1.3 0-3.9-1.3-5.1-2.6-3.9-3.9-6.5-7.7-10.4-10.3-20.6 12.9-45.1 15.5-68.3 7.7-12.9-2.6-27.1-10.3-40-3.9-6.4 3.9-12.9 5.2-20.6 6.5-27.1 1.3-52.9 2.6-80 5.2-18 2.5-34.8 11.6-52.9 12.8-33.5 5.2-67 5.2-100.6-5.1-2.5-1.3-6.4-2.6-9-3.9-28.4-14.2-55.4-33.5-68.3-63.2-9.1-18-1.3-38.7 3.8-56.7 1.3-3.9 5.2-6.5 7.8-10.3 2.6-2.6 5.1-3.9 6.4-6.5 6.5-6.4 15.5-10.3 23.2-14.2 6.5-2.5 12.9-5.1 18.1-7.7 19.3-6.5 40-10.3 59.3-3.9 19.4 6.5 34.8 20.7 54.2 28.4 7.7 2.6 16.7 0 23.9-3q-11.8-3.9-23.6-7.8c25.5-6 50-17.6 71.9-34.3 51.6-40 95.4-86.4 158.6-105.8 1.3 0 2.6-2.6 3.9-2.6 14.2-2.5 29.7-12.9 25.8-28.3-1.3-5.2-7.7-7.8-12.9-9.1-5.2 0-11.6-2.5-10.3-7.7 3.8-11.6 11.6-20.6 12.9-32.2 0-14.2-1.3-29.7-3.9-43.9 0-5.2-1.3-10.3 1.3-14.2 5.2-9 16.8-12.9 24.5-20.6 7.7-9 14.2-16.8 19.3-27.1 15.5-38.7 23.3-78.7 33.6-119.9 2.6-11.6-1.3-23.3-12.9-27.1-11.6-2.6-21.9 1.3-31 6.4-20.6 11.6-40 22-59.3 34.8-14.2 7.8-27.1 15.5-41.3 22-7.7 2.6-16.7 6.4-24.5 1.3-24.5-19.4-43.8-45.2-54.1-73.5-10.4-32.3-12.9-67.1-11.6-100.6 1.2-3.9 1.2-9.1 3.8-12.9 3.9-2.6 9.1-3.9 12.9-2.6 25.8 9 50.3 16.8 73.5 30.9 7.8 11.6 16.8 20.7 29.7 25.8 3.9 1.3 10.3 5.2 12.9 1.3 6.4-12.9 9-25.8 21.9-33.5 12.9-9 27.1-12.9 42.6-15.5 2.6-1.3 3.8-3.9 3-5.3 0.8 0.2 2.1 1.4 3.4 1.4 7.8-3.8 15.5-10.3 24.5-6.4 12.9-7.7 28.4-5.2 42.6-7.7 2.6 0 6.4 1.2 7.7-1.3 2.6-19.4 2.6-38.7 6.5-58.1 0-2.5 0-3.8 0-6.4 3.8-18.1 10.3-34.8 21.9-49 9-9 19.3-20.7 32.2-18.1 2.6 1.3 5.2 2.6 6.5 3.9 21.9 25.8 37.4 55.4 51.6 87.7 2.5 6.4 9 11.6 11.6 19.3 3.8 10.4 5.1 22 9 32.3 6.4 14.2 19.3 23.2 33.5 29.6q2 2 3.9 3.9c29.7 16.8 45.1 46.4 64.4 72.8-4.3-3.6-10.1-5.2-15.6-4.3 17.3 19.9 29.8 43.9 36 69.5q-3.6-1.9-7.2-3.8c2.4 10.2 4.9 20.6 7.5 32.2 0 3.8-5.1 3.8-5.1 5.1 0 15.5 9 27.1 19.9 38.8-5.6 2.3-12.8-0.1-15.9-5.4-9.2 31.1 12.7 62.1 43.7 71.1 5.1 1.3 7.7 7.7 10.3 12.9 1.3 5.1 2.6 11.6 6.4 11.6 3.9 1.3 9.5-3.4 14.2 0 3 2.1 5.2 5.2 3.1 9 7.2-5.1 12.4 2.6 15 9 3.9 15.5 12.9 29.7 25.8 40 16.7 12.9 33.5 23.2 46.4 40 9 12.9 19.3 23.2 29.7 34.8 7.7 9.1 12.9 20.7 12.9 33.6q0 3.8 3.8 7.7c10.3 9 20.7 18.1 31 28.4q3.8 3.8 3.8 7.7c0 2.6-3.8 5.2-5.8 4.5 0.6 3.1 2.2 5.9 4.4 8.1-1.1 0.3-3.7 0.3-5 0.3-3.9 3.9 0 6.5 1.3 9 1.3 3.9 7.7 2.6 7.7 5.2 5.2 12.9 15.5 16.8 23.8 24.4q-9.8 0-19.6 0c5.6 6.8 12.1 12.8 19.3 17.7-2.8-0.8-6.7 1.7-6.7 3 0 20.7 7.7 42.6 15.5 62.2-6.7-2-12.9-5.2-18.3-9.5 1.2 12.1 4.4 24.1 9.5 35.1 4.5 9.7 15.1 21 12.6 32.4-5.1-4.1-10.3-2.8-10.3 3.6-2.6 36.1 15.5 69.7 27.1 103.8q-5.2-2-10.3-4.1c3.1 8.6 8.4 16.3 15.1 22.5-7.4 2.9-26.7 5.5-21.6 15.8 2.6 3.9 7.8 6.5 9.1 11.6 0 1.3-1.3 2.6-1.3 2.6-2.6 0-5.2 0-6.5 2.6 0 1.3 1.3 5.1 2.6 6.4 12.9 12.9 7.7 31-6.4 41.3-1.3 1.3-2.6 5.2-2.6 7.7 1.3 14.2 0 28.4 2.3 43 0.6 8.9 6.3 36.1-9.9 35.4 1.7 10.2 0.6 20.6-2 30.6-9.2 34.8-37.5 64.5-36.3 102 22.7-9.8 34.3-31.7 56.2-45.9 6.4-3.9 14.2-6.4 21.9-7.7 7.8-18.1 24.5-29.7 43.9-34.8 20.6-14.2 38.7-29.7 64.5-34.9 1.2 0 2.5-2.5 3.8-2.5 25.8-6.5 51.6-14.2 78.3-15.7q-1.4 5.2-2.7 10.5c14.8-13.7 37-18.7 56.3-12.8q-4.4 5.5-8.8 11.1 20.2-3.6 40.5-7.2c5.2-0.9 13.3-3.9 18.5-2 3 1.1 5.2 7.7 0.5 7.7q14.6-1.3 29.2-2.7 0.2 3.8 0.3 7.6c4.6-4.3 11-5.6 17.5-6.9 12.9-1.2 27.1 1.3 40-1.2 41.2-5.2 74.8-25.8 114.7-36.2 11.6-2.5 18.1 9.1 25.8 16.8 3.9 2.6 7.8 6.5 12.9 6.5 1.3 15.4-1.3 30.9-6.4 45.1-1.3 2.6-2.6 6.4-3.9 9-6.4 11.6-12.9 21.9-21.9 32.3-2.6 2.5-5.2 3.8-7.8 6.4-64.4 64.5-159.9 56.8-242.4 63.2-1.6 0.1 1.5 2.7 2.6 3.9z"/>
		<path id="Layer" class="s0" d="m249.9 1560.9c0.9 3 0.2 6.4-1.7 8.9-20.8-16.2-38.5-35.8-56.1-55.3-7.4-8.3-14.9-16.5-21.1-25.7-6.5-9.6-11.5-20.1-16.5-30.5-10.3-22.2-20.1-45.2-18.1-69.6-10.3-16.9-13.6-37.2-14-57-0.4-19.7 1.9-39.5 1.6-59.3-0.9-62.7-25.4-123.3-30.8-185.9-1.6-18-10-34.8-19.7-50.1-9.8-15.2-21-29.6-29.3-45.7-12.1-23.3-17.7-49.9-15.9-76.1 0.6-9.2 2.5-19.1 9.3-25.3 7.2-6.6 17.9-7.2 27.6-7.2 29.8 0.2 61.1 4.1 85.4 21.3 31.8 22.6 57.1 56.1 72.9 91.8 12.3 27.9 20.3 57.7 23.7 88.1 3.7 33.8-2.4 71.1 15.8 99.8 16.9 26.7 27 56.9 35.7 87.3 8.6 30.3 16 61.1 28 90.2 12 29.1 29.2 56.9 54.1 76.3 4.9 3.8 10.3 7.4 16.4 8.4 6.1 1 13.2-1 16.3-6.4 3.1-5.1 1.9-11.5 0.9-17.3-13-69-9.4-140.6-5.4-210.7-6.8-13.2-6.5-28.8-6.1-43.6 0.6-21.3 1.3-42.7 5.8-63.5 3.7-16.5 9.7-32.3 13.1-48.9 3.3-16.5-0.3-32.5-3.6-49-2.2-10.6 0.7-21.4 3.9-31.6 11.5-37.3 17.9-77.8 41.2-109.1 5.9-7.8 2.8-18.8 2.6-28.6-0.3-13.8 5.8-26.8 11.8-39.1 20.2-41 46.7-78.8 64.2-121 5.2-12.6 16.6-21.4 25.1-32.1 16.7-20.9 22-49.3 19.4-76-1.4-13.1-4.4-26.1-4.9-39.3-0.5-13.2 1.4-26.9 9.8-37.1-0.1-15.6 8.7-29.6 15.1-43.8 7.8-17.3 12.6-36.3 23.4-52 7.3-10.7 17.1-19.4 25.5-29.4 8.3-9.9 15.6-21.5 16.3-34.5 3.1-51.8 24.3-101 50.4-146 3.4-5.9 7.5-12.3 14-14.7 7.4-2.7 15.8 0.8 21.5 6.2 5.6 5.5 9.1 12.8 12.9 19.6 3.9 6.9 10.3 11.6 15.6 17.4 10.6 11.7 18.9 25.5 24.1 40.3 3.9 10.9 6.2 22.4 11.7 32.5 4.8 8.9 12.2 16.7 21.5 20.7 10.2 4.4 21.7 4.2 32.7 3.1 11-1.2 22.1-3.2 33.1-2.2 11 1 21.9 6.1 28.1 15.3 6.6 9.8 14.3 20.4 25.8 23.1 8 1.9 16.4-0.4 24.1-3.5 40.9-16.5 72.9-53.5 116.3-62.1 7.3-1.5 15.3-2 21.9 1.6 6 3.3 9.9 9.6 11.5 16.2 1.7 6.6 1.3 13.5 0.5 20.3-2.4 18.7-8.5 36.8-14.5 54.8-6.6 19.7-12.6 39.2-19.1 58.9-5.5 16.5-17.2 30.9-32.3 39.7-3.6 2.1-7.4 3.9-10.7 6.4-3.4 2.6-6.3 6-7.1 10.1-0.8 4.1 0.4 8.2 1.4 12.1 2.9 11.5 3.3 23.3 2.7 35.2l-11.4 32.8c-0.7 2 0.6 4.2 2.8 4.4 3.6 0.5 7.1 1.1 10.5 2.5 4.7 1.9 8.9 5.3 10.7 10 1.8 5.1 0.4 10.9-2.4 15.6-6.9 11.5-20.8 16.5-33.3 21.6-20.1 8.2-39.3 18.7-57 31.4-33.3 23.7-67.2 47.4-98.6 73.7-17.7 14.8-38.4 26-60.4 32.8l16.4 6.7c-11.3 10.7-29.4 9.6-43.8 3.8-14.3-5.8-26.9-15.4-41.5-20.7-23.5-8.5-50-4.6-73.4 4.3-9.7 3.7-19.4 8.4-26.8 15.8-10.8 10.9-15.5 26.8-14.8 42.2 0.7 15.3 6.5 30 14.3 43.2 15.9 26.9 42.7 49.8 73.8 52.3 56 4.7 119 13.8 166.4-16.2 8.2-5.2 18.3-6.2 28-6.2 9.7 0 19.5 0.8 29-1.3 6.8-1.4 13.3-4.3 20.2-4.6 4.5-0.2 9.1 0.7 13.6 0.3 7.6-0.7 14.4-5 20.8-9.3q10.3-6.8 20.6-13.6c2.1-1.4 4.2-2.8 6.6-3.5 2.5-0.7 5.2-0.7 7.3 0.7 0.6 2-0.8 3.9-2.4 5.1-1.9 1.6-4.3 2.8-4.7 5.5-0.3 1.1 0.3 2.4 1.3 2.9 1.4 0.7 2.6-0.1 3.6-0.8 3.8-2.8 9.1-4.7 11.4-8.7 4.3-7.3 13.1-11.9 21.6-11 2 0.3 4 1 5.5 2.5 4.5 4.3 1.7 10.8-1.5 15.6-2.9 4.3-6.2 9.4-4.5 14.4 8.1-3.6 18.1-2.2 25 3.4 10.5-9.8 23.6-16.8 37.5-20.4 1 6.5-0.6 13.3-4.3 18.7 10.5-2.2 21.1-4.3 31-8.6 9.8-4.2 19.1-10.7 24.7-19.9 7.3-11.8 7.8-26.5 11-40 3.5-14.6 10.6-28.5 21.3-38.9 10.8-10.4 25.5-17.1 40.4-17 4.8 0 9.8 0.7 14.3-0.7 3.4-1 6.3-3 9.4-4.5 12.4-5.9 28.4-2.4 37.2 8.1 8.8 10.4 9.6 26.8 1.7 38 0.3 2.4 3.9 3 6.1 1.8 2.1-1.2 3.6-3.4 5.7-4.7 5.2-3.1 12.3 0.8 14.7 6.3 2.4 5.6 1.2 12.2 1.1 18.2-0.4 19-0.8 38.1-5.5 56.5-4.6 18.4-13.9 36.2-29.1 47.6-8 6-17.3 10.1-24.9 16.5-15.6 13.4-22.3 35.3-40.8 44.3-8.7 17.2-31.5 25-50.8 24.6-2.5-0.1-5.1-0.3-7.6 0.3-2.5 0.6-4.9 2.2-5.6 4.7-0.6 2.5 0.6 5.2 0.1 7.7-0.8 3.7-5.1 5.6-8.9 5.3-3.7-0.2-7.2-1.8-10.9-2.7-11-2.4-22.1 3.1-31.9 8.7-1.7 1-3.6 2-4.4 3.9-1.1 2.4 0.1 5.4-0.8 8-1.3 3.6-5.9 4.5-9.7 4.4-3.8-0.1-8.6-0.9-11.4 1.7-10.9-7.2-25.2-7.2-37.7-3.6-12.6 3.7-23.8 10.7-35.2 17-11.4 6.3-23.6 12-36.6 12.9-4.8 0.3-10.1 0.1-13.9 3-5 3.7-5.4 10.8-5.4 17-0.1 12.3-0.1 24.8 3.1 36.7 1.1 4.1 3.4 8.8 7.6 9 1.9 0.1 3.7-0.7 5.5-0.6 5.1 0.2 7.3 7 5.8 11.8-1.6 4.8-5.3 8.7-7.1 13.4-3.2 7.9-0.5 16.9 1.7 25.1 2.2 8.3 3.8 17.8-1 24.9-2.9 4.3-7.8 7-10.8 11.2-5.2 7.1-5.4 16.8-4.3 25.6-10.2 3.2-16.9 13.2-20.4 23.4-1.7 4.8-2.8 9.9-2.4 14.9 0.5 5 2.7 10.1 6.8 13.1 5.6 4.1 13.3 3.5 20.2 3.5 9.9-0.1 19.9 1.1 29.4 3.5l-3.9 4c12.7 12.5 25.2 26 31.9 42.5 6.7 16.5 6.6 36.9-4.4 50.9-5.3 6.7-12.7 11.5-19 17.3-6.4 5.7-12 12.9-12.2 21.5-20 25.5-40.8 51.6-69.3 67.2-20.7 11.4-44.1 16.4-66.9 22.6-29.4 7.9-58.2 18-87.8 24.7-29.7 6.7-60.8-0.6-91 3.7-14.4 2-29.1 4-43.6 2.7-14.6-1.4-29.3-6.5-39.5-16.9-5.3-5.3-10.6-12.6-19.6-8.3-2.4 1.2-4.5 3-6.1 5.2-10.1 13.7-24.5 23.1-38.6 32.3-11.6 7.5-23.5 15.1-36.9 18-17.1 3.7-36-0.3-51.3 7.9-6.1 3.2-11.3 8.3-18 10.1-6.6 1.8-15.6-1.9-15.5-8.8q-32.9 4.1-65.8 8.2c-4.2 0.6-8.6 1-12.3-0.9-3.7-1.9-5.9-7.3-3.2-10.4-2.3 3.9-8.2 5-11.9 2.3-3.6-2.7-4.2-8.7-1.1-12q-3.4-5.8-6.7-11.6c-24-1.4-45.2-9.7-62.9-25.9z"/>
	</g>
</svg>