<?xml version="1.0" encoding="utf-8"?>
<svg version="1.2" viewBox="0 0 24 24" width="24" height="24" xmlns="http://www.w3.org/2000/svg">
  <style>.a{mix-blend-mode:color}</style>
  <path fill-rule="evenodd" class="a" d="M 19.345 7.624 C 19.345 11.332 15.852 15.746 11.362 22.102 C 6.871 15.746 3.378 11.332 3.378 7.624 C 3.378 3.916 7.17 0.915 11.362 0.915 C 15.553 0.915 19.345 3.916 19.345 7.624 Z M 11.362 20.425 C 15.753 14.245 18.347 10.714 18.347 7.624 C 18.347 4.534 15.054 1.798 11.362 1.798 C 7.669 1.798 4.376 4.534 4.376 7.624 C 4.376 10.714 6.871 14.245 11.362 20.425 Z M 14.356 7.977 C 14.356 9.478 13.058 10.626 11.362 10.626 C 9.665 10.626 8.368 9.478 8.368 7.977 C 8.368 6.477 9.665 5.329 11.362 5.329 C 13.058 5.329 14.356 6.477 14.356 7.977 Z M 13.358 7.977 C 13.358 7.006 12.459 6.212 11.362 6.212 C 10.264 6.212 9.366 7.006 9.366 7.977 C 9.366 8.948 10.264 9.743 11.362 9.743 C 12.459 9.743 13.358 8.948 13.358 7.977 Z" style=""/>
</svg>