<svg version="1.2" xmlns="http://www.w3.org/2000/svg" viewBox="0 0 396 396" width="396" height="396">
	<title>location-sign-svgrepo-com-svg</title>
	<style>
		.s0 { fill: #fff6f6 } 
	</style>
	<g id="Layer">
		<path id="Layer" fill-rule="evenodd" class="s0" d="m335.2 137.3c0 72.9-124.6 243.2-129.9 250.4l-5 6.8c-0.5 0.7-1.5 1.2-2.5 1.2-0.9 0-1.8-0.5-2.4-1.2l-5-6.8c-5.3-7.2-129.9-177.5-129.9-250.4 0-75.7 61.6-137.3 137.3-137.3 75.8 0 137.4 61.6 137.4 137.3zm-186.5 0c0 27.1 22 49.2 49.1 49.2 27.2 0 49.2-22.1 49.2-49.2 0-27.1-22-49.2-49.2-49.2-27.1 0-49.1 22.1-49.1 49.2z"/>
	</g>
	<g id="Layer">
	</g>
	<g id="Layer">
	</g>
	<g id="Layer">
	</g>
	<g id="Layer">
	</g>
	<g id="Layer">
	</g>
	<g id="Layer">
	</g>
	<g id="Layer">
	</g>
	<g id="Layer">
	</g>
	<g id="Layer">
	</g>
	<g id="Layer">
	</g>
	<g id="Layer">
	</g>
	<g id="Layer">
	</g>
	<g id="Layer">
	</g>
	<g id="Layer">
	</g>
	<g id="Layer">
	</g>
</svg>