<?xml version="1.0" encoding="utf-8"?>
<svg version="1.2" viewBox="0 0 24 24" width="24" height="24" xmlns="http://www.w3.org/2000/svg">
  <style>.a{mix-blend-mode:color}</style>
  <path fill-rule="evenodd" class="a" d="M 19.378 8.515 C 19.378 12.715 15.878 17.715 11.378 24.915 C 6.878 17.715 3.378 12.715 3.378 8.515 C 3.378 4.315 7.178 0.915 11.378 0.915 C 15.578 0.915 19.378 4.315 19.378 8.515 Z M 11.378 23.015 C 15.778 16.015 18.378 12.015 18.378 8.515 C 18.378 5.015 15.078 1.915 11.378 1.915 C 7.678 1.915 4.378 5.015 4.378 8.515 C 4.378 12.015 6.878 16.015 11.378 23.015 Z M 14.378 8.915 C 14.378 10.615 13.078 11.915 11.378 11.915 C 9.678 11.915 8.378 10.615 8.378 8.915 C 8.378 7.215 9.678 5.915 11.378 5.915 C 13.078 5.915 14.378 7.215 14.378 8.915 Z M 13.378 8.915 C 13.378 7.815 12.478 6.915 11.378 6.915 C 10.278 6.915 9.378 7.815 9.378 8.915 C 9.378 10.015 10.278 10.915 11.378 10.915 C 12.478 10.915 13.378 10.015 13.378 8.915 Z"/>
</svg>